<?xml version="1.0" standalone="no"?><!DOCTYPE svg PUBLIC "-//W3C//DTD SVG 1.1//EN" "http://www.w3.org/Graphics/SVG/1.1/DTD/svg11.dtd"><svg t="1734173991115" class="icon" viewBox="0 0 1024 1024" version="1.1" xmlns="http://www.w3.org/2000/svg" p-id="12985" xmlns:xlink="http://www.w3.org/1999/xlink" width="128" height="128"><path d="M832.2 0h-704c-35.2 0-64 28.8-64 64v896c0 35.2 28.8 64 64 64h704c35.2 0 64-28.8 64-64V64c0-35.2-28.8-64-64-64z m0 64v465c-20 15.1-72.6 47-160 47-46.1 0-70.3-19.8-103.8-47.1-44.2-36-99.1-80.9-216.2-80.9-110.9 0-181.2 20.3-224 39.7V64h704z m-704 896V560c22.4-14.6 88.1-48 224-48 94.3 0 133.8 32.3 175.7 66.4C565 608.7 603.3 640 672.2 640c70.9 0 124.2-18.1 160-36.4V960h-704z" fill="#2c2c2c" p-id="12986"></path></svg>