<?xml version="1.0" standalone="no"?><!DOCTYPE svg PUBLIC "-//W3C//DTD SVG 1.1//EN" "http://www.w3.org/Graphics/SVG/1.1/DTD/svg11.dtd"><svg t="1734174808103" class="icon" viewBox="0 0 2560 1024" version="1.1" xmlns="http://www.w3.org/2000/svg" p-id="14213" xmlns:xlink="http://www.w3.org/1999/xlink" width="320" height="128"><path d="M348.7744 500.224l322.8672-315.392a105.472 105.472 0 0 0 31.6416-74.5472 103.424 103.424 0 0 0-31.744-74.6496 108.2368 108.2368 0 0 0-76.288-30.9248 110.2848 110.2848 0 0 0-76.3904 30.9248L118.5792 427.7248a103.936 103.936 0 0 0-31.3344 74.1376c0 27.648 11.264 54.3744 31.3344 74.0352l400.2816 392.192a107.8272 107.8272 0 0 0 76.3904 31.0272 109.7728 109.7728 0 0 0 76.3904-31.1296c19.968-19.6608 31.232-46.2848 31.232-74.0352 0-27.8528-11.264-54.4768-31.232-74.1376l-322.8672-319.488z m1540.7104 465.7152c20.1728 19.5584 47.4112 30.5152 75.8784 30.5152 28.4672 0 55.7056-10.9568 75.776-30.5152l401.408-386.8672a103.936 103.936 0 0 0 0-148.1728l-401.408-392.192a108.9536 108.9536 0 0 0-76.1856-30.4128c-28.4672 0-55.808 11.264-75.9808 31.0272a104.0384 104.0384 0 0 0-31.232 74.4448c0 27.9552 11.5712 54.6816 31.744 74.3424l322.7648 315.392-322.7648 315.2896c-19.6608 19.6608-30.72 46.08-30.72 73.5232 0 27.5456 11.0592 53.9648 30.72 73.6256zM1532.3136 69.3248a109.2608 109.2608 0 0 0-147.456 38.912L988.0576 789.1968a103.6288 103.6288 0 0 0 36.864 147.456 109.3632 109.3632 0 0 0 149.1968-42.2912l401.408-677.9904a103.5264 103.5264 0 0 0-43.008-147.1488z" fill="#2c2c2c" p-id="14214"></path></svg>