<?xml version="1.0" standalone="no"?><!DOCTYPE svg PUBLIC "-//W3C//DTD SVG 1.1//EN" "http://www.w3.org/Graphics/SVG/1.1/DTD/svg11.dtd"><svg t="1734173882589" class="icon" viewBox="0 0 1024 1024" version="1.1" xmlns="http://www.w3.org/2000/svg" p-id="5503" xmlns:xlink="http://www.w3.org/1999/xlink" width="128" height="128"><path d="M752.3 873H276.4c-4.8 0-8.7-3.9-8.7-8.7V169.9c0-4.8 3.9-8.7 8.7-8.7h475.9c4.8 0 8.7 3.9 8.7 8.7v694.4c0 4.8-3.9 8.7-8.7 8.7zM276.4 169.7c-0.1 0-0.2 0.1-0.2 0.2v694.4c0 0.1 0.1 0.2 0.2 0.2h475.9c0.1 0 0.2-0.1 0.2-0.2V169.9c0-0.1-0.1-0.2-0.2-0.2H276.4z" fill="#717071" p-id="5504"></path><path d="M720.1 363.3h-408c-2.3 0-4.3-1.9-4.3-4.3V220.7c0-2.3 1.9-4.3 4.3-4.3h408.1c2.3 0 4.3 1.9 4.3 4.3V359c-0.1 2.4-2 4.3-4.4 4.3z m-403.8-8.5h399.5V224.9H316.3v129.9zM756.7 444.9H271.9c-2.3 0-4.3-1.9-4.3-4.3v-44.7c0-2.3 1.9-4.3 4.3-4.3h484.9c2.3 0 4.3 1.9 4.3 4.3v44.7c-0.1 2.3-2 4.3-4.4 4.3z m-480.6-8.6h476.3v-36.2H276.1v36.2zM494.7 545.3H323.5c-2.8 0-5-2.3-5-5V479c0-2.8 2.3-5 5-5h171.2c2.8 0 5 2.3 5 5v61.3c0.1 2.7-2.2 5-5 5zM327 536.8h164.2v-54.4H327v54.4zM603 544.2h-61.3c-2.8 0-5-2.3-5-5v-61.3c0-2.8 2.3-5 5-5H603c2.8 0 5 2.3 5 5v61.3c0.1 2.7-2.2 5-5 5z m-57.8-8.5h54.4v-54.4h-54.4v54.4zM710.9 544.7h-61.3c-2.8 0-5-2.3-5-5v-61.3c0-2.8 2.3-5 5-5h61.3c2.8 0 5 2.3 5 5v61.3c0 2.7-2.2 5-5 5z m-57.9-8.5h54.4v-54.4H653v54.4zM603 645.2h-61.3c-2.8 0-5-2.3-5-5v-61.3c0-2.8 2.3-5 5-5H603c2.8 0 5 2.3 5 5v61.3c0.1 2.8-2.2 5-5 5z m-57.8-8.5h54.4v-54.4h-54.4v54.4zM710.9 645.7h-61.3c-2.8 0-5-2.3-5-5v-61.3c0-2.8 2.3-5 5-5h61.3c2.8 0 5 2.3 5 5v61.3c0 2.8-2.2 5-5 5z m-57.9-8.5h54.4v-54.4H653v54.4zM384.9 645.5h-61.3c-2.8 0-5-2.3-5-5v-61.3c0-2.8 2.3-5 5-5h61.3c2.8 0 5 2.3 5 5v61.3c0 2.7-2.2 5-5 5zM327 637h54.4v-54.4H327V637zM492.7 646h-61.3c-2.8 0-5-2.3-5-5v-61.3c0-2.8 2.3-5 5-5h61.3c2.8 0 5 2.3 5 5V641c0.1 2.7-2.2 5-5 5z m-57.8-8.5h54.4v-54.4h-54.4v54.4zM603 733.6h-61.3c-2.8 0-5-2.3-5-5v-61.3c0-2.8 2.3-5 5-5H603c2.8 0 5 2.3 5 5v61.3c0.1 2.8-2.2 5-5 5z m-57.8-8.5h54.4v-54.4h-54.4v54.4zM710.9 734.1h-61.3c-2.8 0-5-2.3-5-5v-61.3c0-2.8 2.3-5 5-5h61.3c2.8 0 5 2.3 5 5v61.3c0 2.8-2.2 5-5 5z m-57.9-8.5h54.4v-54.4H653v54.4zM384.9 733.9h-61.3c-2.8 0-5-2.3-5-5v-61.3c0-2.8 2.3-5 5-5h61.3c2.8 0 5 2.3 5 5v61.3c0 2.7-2.2 5-5 5z m-57.9-8.5h54.4V671H327v54.4zM492.7 734.4h-61.3c-2.8 0-5-2.3-5-5V668c0-2.8 2.3-5 5-5h61.3c2.8 0 5 2.3 5 5v61.3c0.1 2.8-2.2 5.1-5 5.1z m-57.8-8.5h54.4v-54.4h-54.4v54.4zM603 822.8h-61.3c-2.8 0-5-2.3-5-5v-61.3c0-2.8 2.3-5 5-5H603c2.8 0 5 2.3 5 5v61.3c0.1 2.7-2.2 5-5 5z m-57.8-8.5h54.4v-54.4h-54.4v54.4zM710.9 823.3h-61.3c-2.8 0-5-2.3-5-5V757c0-2.8 2.3-5 5-5h61.3c2.8 0 5 2.3 5 5v61.3c0 2.7-2.2 5-5 5z m-57.9-8.5h54.4v-54.4H653v54.4zM384.9 823h-61.3c-2.8 0-5-2.3-5-5v-61.3c0-2.8 2.3-5 5-5h61.3c2.8 0 5 2.3 5 5V818c0 2.8-2.2 5-5 5z m-57.9-8.5h54.4v-54.4H327v54.4zM492.7 823.6h-61.3c-2.8 0-5-2.3-5-5v-61.3c0-2.8 2.3-5 5-5h61.3c2.8 0 5 2.3 5 5v61.3c0.1 2.7-2.2 5-5 5z m-57.8-8.6h54.4v-54.4h-54.4V815z" fill="#717071" p-id="5505"></path></svg>