<?xml version="1.0" standalone="no"?><!DOCTYPE svg PUBLIC "-//W3C//DTD SVG 1.1//EN" "http://www.w3.org/Graphics/SVG/1.1/DTD/svg11.dtd"><svg t="1735477168602" class="icon" viewBox="0 0 1024 1024" version="1.1" xmlns="http://www.w3.org/2000/svg" p-id="4582" xmlns:xlink="http://www.w3.org/1999/xlink" width="128" height="128"><path d="M201.5232 251.4944c138.9568-165.5808 383.0784-192 553.8304-63.6416 9.5744 7.168 10.8032 21.2992 3.072 30.464L265.6256 805.6832a21.248 21.248 0 0 1-30.5664 2.2528c-156.0576-145.92-172.3904-390.8608-33.4848-556.4416z m812.7488 358.912a512 512 0 0 0-24.7296-282.5216 510.5664 510.5664 0 0 0-211.2512-253.3376C580.9152-46.6944 321.3312-17.408 155.5456 144.384c-220.16 215.04-202.3936 567.0912 27.392 759.9104a508.5184 508.5184 0 0 0 230.656 110.0288 512 512 0 0 0 282.5216-24.7296 508.6208 508.6208 0 0 0 208.0768-148.48 508.6208 508.6208 0 0 0 110.08-230.656z" fill="#A3CDFF" p-id="4583"></path></svg>